<?xml version="1.0" encoding="utf-8" standalone="no"?>
<!DOCTYPE svg PUBLIC "-//W3C//DTD SVG 1.1//EN"
  "http://www.w3.org/Graphics/SVG/1.1/DTD/svg11.dtd">
<!-- Created with matplotlib (http://matplotlib.org/) -->
<svg height="250pt" version="1.1" viewBox="0 0 230 250" width="230pt" xmlns="http://www.w3.org/2000/svg" xmlns:xlink="http://www.w3.org/1999/xlink">
 <defs>
  <style type="text/css">
*{stroke-linecap:butt;stroke-linejoin:round;}
  </style>
 </defs>
 <g id="figure_1">
  <g id="patch_1">
   <path d="M 0 250.56 
L 230.4 250.56 
L 230.4 0 
L 0 0 
z
" style="fill:#ffffff;"/>
  </g>
  <g id="axes_1">
   <g id="PathCollection_1">
    <defs>
     <path d="M 0 1.936492 
C 0.513564 1.936492 1.006162 1.732451 1.369306 1.369306 
C 1.732451 1.006162 1.936492 0.513564 1.936492 0 
C 1.936492 -0.513564 1.732451 -1.006162 1.369306 -1.369306 
C 1.006162 -1.732451 0.513564 -1.936492 0 -1.936492 
C -0.513564 -1.936492 -1.006162 -1.732451 -1.369306 -1.369306 
C -1.732451 -1.006162 -1.936492 -0.513564 -1.936492 0 
C -1.936492 0.513564 -1.732451 1.006162 -1.369306 1.369306 
C -1.006162 1.732451 -0.513564 1.936492 0 1.936492 
z
" id="mf0a31eb7de" style="stroke:#000000;"/>
    </defs>
    <g>
     <use style="fill:#808080;stroke:#000000;" x="76.57589" xlink:href="#mf0a31eb7de" y="118.547149"/>
     <use style="fill:#808080;stroke:#000000;" x="76.622121" xlink:href="#mf0a31eb7de" y="118.828487"/>
     <use style="fill:#808080;stroke:#000000;" x="76.580524" xlink:href="#mf0a31eb7de" y="118.968806"/>
     <use style="fill:#808080;stroke:#000000;" x="76.580524" xlink:href="#mf0a31eb7de" y="118.968806"/>
     <use style="fill:#808080;stroke:#000000;" x="76.625205" xlink:href="#mf0a31eb7de" y="119.039377"/>
     <use style="fill:#808080;stroke:#000000;" x="76.67" xlink:href="#mf0a31eb7de" y="119.109873"/>
     <use style="fill:#808080;stroke:#000000;" x="76.67" xlink:href="#mf0a31eb7de" y="119.109873"/>
     <use style="fill:#808080;stroke:#000000;" x="76.674295" xlink:href="#mf0a31eb7de" y="119.320914"/>
     <use style="fill:#808080;stroke:#000000;" x="76.719526" xlink:href="#mf0a31eb7de" y="119.391296"/>
     <use style="fill:#808080;stroke:#000000;" x="76.850323" xlink:href="#mf0a31eb7de" y="119.391114"/>
     <use style="fill:#808080;stroke:#000000;" x="77.07199" xlink:href="#mf0a31eb7de" y="119.530491"/>
     <use style="fill:#808080;stroke:#000000;" x="77.117602" xlink:href="#mf0a31eb7de" y="119.600281"/>
     <use style="fill:#808080;stroke:#000000;" x="77.464362" xlink:href="#mf0a31eb7de" y="119.526624"/>
     <use style="fill:#808080;stroke:#000000;" x="77.510028" xlink:href="#mf0a31eb7de" y="119.595863"/>
     <use style="fill:#808080;stroke:#000000;" x="77.896142" xlink:href="#mf0a31eb7de" y="119.38078"/>
     <use style="fill:#808080;stroke:#000000;" x="77.555806" xlink:href="#mf0a31eb7de" y="119.665027"/>
     <use style="fill:#808080;stroke:#000000;" x="77.732504" xlink:href="#mf0a31eb7de" y="119.731782"/>
     <use style="fill:#808080;stroke:#000000;" x="77.987275" xlink:href="#mf0a31eb7de" y="119.518013"/>
     <use style="fill:#808080;stroke:#000000;" x="78.078851" xlink:href="#mf0a31eb7de" y="119.654947"/>
     <use style="fill:#808080;stroke:#000000;" x="77.909326" xlink:href="#mf0a31eb7de" y="119.797849"/>
     <use style="fill:#808080;stroke:#000000;" x="77.955471" xlink:href="#mf0a31eb7de" y="119.86642"/>
     <use style="fill:#808080;stroke:#000000;" x="78.217045" xlink:href="#mf0a31eb7de" y="119.859785"/>
     <use style="fill:#808080;stroke:#000000;" x="78.048094" xlink:href="#mf0a31eb7de" y="120.003336"/>
     <use style="fill:#808080;stroke:#000000;" x="78.178921" xlink:href="#mf0a31eb7de" y="119.999775"/>
     <use style="fill:#808080;stroke:#000000;" x="77.963706" xlink:href="#mf0a31eb7de" y="120.075178"/>
     <use style="fill:#808080;stroke:#000000;" x="78.187856" xlink:href="#mf0a31eb7de" y="120.208142"/>
     <use style="fill:#808080;stroke:#000000;" x="78.217045" xlink:href="#mf0a31eb7de" y="119.859785"/>
     <use style="fill:#808080;stroke:#000000;" x="78.309726" xlink:href="#mf0a31eb7de" y="119.995967"/>
     <use style="fill:#808080;stroke:#000000;" x="78.309726" xlink:href="#mf0a31eb7de" y="119.995967"/>
     <use style="fill:#808080;stroke:#000000;" x="78.394098" xlink:href="#mf0a31eb7de" y="119.924042"/>
     <use style="fill:#808080;stroke:#000000;" x="78.524842" xlink:href="#mf0a31eb7de" y="119.919923"/>
     <use style="fill:#808080;stroke:#000000;" x="78.487026" xlink:href="#mf0a31eb7de" y="120.059706"/>
     <use style="fill:#808080;stroke:#000000;" x="78.609235" xlink:href="#mf0a31eb7de" y="119.847979"/>
     <use style="fill:#808080;stroke:#000000;" x="78.816835" xlink:href="#mf0a31eb7de" y="119.565083"/>
     <use style="fill:#808080;stroke:#000000;" x="78.824329" xlink:href="#mf0a31eb7de" y="119.771585"/>
     <use style="fill:#808080;stroke:#000000;" x="78.916922" xlink:href="#mf0a31eb7de" y="119.906084"/>
     <use style="fill:#808080;stroke:#000000;" x="79.271248" xlink:href="#mf0a31eb7de" y="120.029085"/>
     <use style="fill:#808080;stroke:#000000;" x="79.392922" xlink:href="#mf0a31eb7de" y="119.817688"/>
     <use style="fill:#808080;stroke:#000000;" x="79.691852" xlink:href="#mf0a31eb7de" y="119.667114"/>
     <use style="fill:#808080;stroke:#000000;" x="80.335662" xlink:href="#mf0a31eb7de" y="119.430238"/>
     <use style="fill:#808080;stroke:#000000;" x="80.780455" xlink:href="#mf0a31eb7de" y="119.674424"/>
     <use style="fill:#808080;stroke:#000000;" x="80.21792" xlink:href="#mf0a31eb7de" y="120.593973"/>
     <use style="fill:#808080;stroke:#000000;" x="82.525731" xlink:href="#mf0a31eb7de" y="119.805362"/>
     <use style="fill:#808080;stroke:#000000;" x="83.067293" xlink:href="#mf0a31eb7de" y="120.149752"/>
     <use style="fill:#808080;stroke:#000000;" x="81.385209" xlink:href="#mf0a31eb7de" y="121.049335"/>
     <use style="fill:#808080;stroke:#000000;" x="84.418222" xlink:href="#mf0a31eb7de" y="119.537001"/>
     <use style="fill:#808080;stroke:#000000;" x="82.182285" xlink:href="#mf0a31eb7de" y="121.176618"/>
     <use style="fill:#808080;stroke:#000000;" x="86.316173" xlink:href="#mf0a31eb7de" y="120.111202"/>
    </g>
   </g>
   <g id="PathCollection_2">
    <defs>
     <path d="M 0 2.236068 
C 0.593012 2.236068 1.161816 2.000462 1.581139 1.581139 
C 2.000462 1.161816 2.236068 0.593012 2.236068 0 
C 2.236068 -0.593012 2.000462 -1.161816 1.581139 -1.581139 
C 1.161816 -2.000462 0.593012 -2.236068 0 -2.236068 
C -0.593012 -2.236068 -1.161816 -2.000462 -1.581139 -1.581139 
C -2.000462 -1.161816 -2.236068 -0.593012 -2.236068 0 
C -2.236068 0.593012 -2.000462 1.161816 -1.581139 1.581139 
C -1.161816 2.000462 -0.593012 2.236068 0 2.236068 
z
" id="ma81e00ba69" style="stroke:#1a1a1a;"/>
    </defs>
    <g>
     <use style="fill:#6495ed;stroke:#1a1a1a;" x="76.737782" xlink:href="#ma81e00ba69" y="118.760217"/>
    </g>
   </g>
   <g id="PathCollection_3">
    <defs>
     <path d="M 0 2.236068 
C 0.593012 2.236068 1.161816 2.000462 1.581139 1.581139 
C 2.000462 1.161816 2.236068 0.593012 2.236068 0 
C 2.236068 -0.593012 2.000462 -1.161816 1.581139 -1.581139 
C 1.161816 -2.000462 0.593012 -2.236068 0 -2.236068 
C -0.593012 -2.236068 -1.161816 -2.000462 -1.581139 -1.581139 
C -2.000462 -1.161816 -2.236068 -0.593012 -2.236068 0 
C -2.236068 0.593012 -2.000462 1.161816 -1.581139 1.581139 
C -1.161816 2.000462 -0.593012 2.236068 0 2.236068 
z
" id="mc5c3ff4e96" style="stroke:#1a1a1a;"/>
    </defs>
    <g>
     <use style="fill:#90ee90;stroke:#1a1a1a;" x="68.778569" xlink:href="#mc5c3ff4e96" y="121.616802"/>
    </g>
   </g>
   <g id="PathCollection_4">
    <defs>
     <path d="M 0 2.236068 
C 0.593012 2.236068 1.161816 2.000462 1.581139 1.581139 
C 2.000462 1.161816 2.236068 0.593012 2.236068 0 
C 2.236068 -0.593012 2.000462 -1.161816 1.581139 -1.581139 
C 1.161816 -2.000462 0.593012 -2.236068 0 -2.236068 
C -0.593012 -2.236068 -1.161816 -2.000462 -1.581139 -1.581139 
C -2.000462 -1.161816 -2.236068 -0.593012 -2.236068 0 
C -2.236068 0.593012 -2.000462 1.161816 -1.581139 1.581139 
C -1.161816 2.000462 -0.593012 2.236068 0 2.236068 
z
" id="mb3f6c3dfe9" style="stroke:#1a1a1a;"/>
    </defs>
    <g>
     <use style="fill:#cd5c5c;stroke:#1a1a1a;" x="62.201464" xlink:href="#mb3f6c3dfe9" y="113.306928"/>
    </g>
   </g>
   <g id="line2d_1">
    <path d="M 207.36 126.5328 
L 207.247235 122.046987 
L 206.909227 117.572506 
L 206.346828 113.120659 
L 205.561459 108.702693 
L 204.555105 104.329767 
L 203.330307 100.012928 
L 201.890159 95.76308 
L 200.238299 91.590959 
L 198.378901 87.507104 
L 196.31666 83.521832 
L 194.056787 79.645209 
L 191.60499 75.887028 
L 188.967463 72.256783 
L 186.150867 68.763644 
L 183.162319 65.416434 
L 180.009367 62.22361 
L 176.699976 59.193237 
L 173.242506 56.332969 
L 169.645691 53.650032 
L 165.918616 51.151203 
L 162.070697 48.842794 
L 158.111654 46.730638 
L 154.051487 44.820068 
L 149.900453 43.115912 
L 145.669037 41.622474 
L 141.36793 40.343527 
L 137.007995 39.282302 
L 132.600246 38.441479 
L 128.155818 37.823182 
L 123.685938 37.428974 
L 119.201896 37.259849 
L 114.71502 37.316236 
L 110.236645 37.597991 
L 105.778083 38.104404 
L 101.350596 38.834194 
L 96.96537 39.785519 
L 92.63348 40.955975 
L 88.365871 42.342605 
L 84.173322 43.941907 
L 80.066425 45.749841 
L 76.055553 47.761839 
L 72.150838 49.97282 
L 68.362145 52.377198 
L 64.699043 54.9689 
L 61.170786 57.741378 
L 57.786287 60.687629 
L 54.554095 63.800211 
L 51.482375 67.07126 
L 48.578886 70.492515 
L 45.850963 74.055333 
L 43.305497 77.750713 
L 40.948917 81.569321 
L 38.787178 85.50151 
L 36.825739 89.537348 
L 35.069555 93.66664 
L 33.523063 97.878955 
L 32.190169 102.163651 
L 31.074241 106.509906 
L 30.178096 110.906741 
L 29.503999 115.343049 
L 29.053653 119.807623 
L 28.828196 124.289185 
L 28.828196 128.776415 
L 29.053653 133.257977 
L 29.503999 137.722551 
L 30.178096 142.158859 
L 31.074241 146.555694 
L 32.190169 150.901949 
L 33.523063 155.186645 
L 35.069555 159.39896 
L 36.825739 163.528252 
L 38.787178 167.56409 
L 40.948917 171.496279 
L 43.305497 175.314887 
L 45.850963 179.010267 
L 48.578886 182.573085 
L 51.482375 185.99434 
L 54.554095 189.265389 
L 57.786287 192.377971 
L 61.170786 195.324222 
L 64.699043 198.0967 
L 68.362145 200.688402 
L 72.150838 203.09278 
L 76.055553 205.303761 
L 80.066425 207.315759 
L 84.173322 209.123693 
L 88.365871 210.722995 
L 92.63348 212.109625 
L 96.96537 213.280081 
L 101.350596 214.231406 
L 105.778083 214.961196 
L 110.236645 215.467609 
L 114.71502 215.749364 
L 119.201896 215.805751 
L 123.685938 215.636626 
L 128.155818 215.242418 
L 132.600246 214.624121 
L 137.007995 213.783298 
L 141.36793 212.722073 
L 145.669037 211.443126 
L 149.900453 209.949688 
L 154.051487 208.245532 
L 158.111654 206.334962 
L 162.070697 204.222806 
L 165.918616 201.914397 
L 169.645691 199.415568 
L 173.242506 196.732631 
L 176.699976 193.872363 
L 180.009367 190.84199 
L 183.162319 187.649166 
L 186.150867 184.301956 
L 188.967463 180.808817 
L 191.60499 177.178572 
L 194.056787 173.420391 
L 196.31666 169.543768 
L 198.378901 165.558496 
L 200.238299 161.474641 
L 201.890159 157.30252 
L 203.330307 153.052672 
L 204.555105 148.735833 
L 205.561459 144.362907 
L 206.346828 139.944941 
L 206.909227 135.493094 
L 207.247235 131.018613 
L 207.358238 127.093759 
L 207.358238 127.093759 
" style="fill:none;stroke:#000000;stroke-linecap:square;"/>
   </g>
   <g id="line2d_2">
    <defs>
     <path d="M -3 0 
L 3 0 
M 0 3 
L 0 -3 
" id="mb76118d47c" style="stroke:#000000;stroke-width:0.5;"/>
    </defs>
    <g>
     <use style="stroke:#000000;stroke-width:0.5;" x="118.08" xlink:href="#mb76118d47c" y="45.373802"/>
     <use style="stroke:#000000;stroke-width:0.5;" x="118.08" xlink:href="#mb76118d47c" y="54.112473"/>
     <use style="stroke:#000000;stroke-width:0.5;" x="118.08" xlink:href="#mb76118d47c" y="63.402307"/>
     <use style="stroke:#000000;stroke-width:0.5;" x="118.08" xlink:href="#mb76118d47c" y="73.172601"/>
     <use style="stroke:#000000;stroke-width:0.5;" x="118.08" xlink:href="#mb76118d47c" y="83.348999"/>
     <use style="stroke:#000000;stroke-width:0.5;" x="118.08" xlink:href="#mb76118d47c" y="93.854052"/>
     <use style="stroke:#000000;stroke-width:0.5;" x="118.08" xlink:href="#mb76118d47c" y="104.60781"/>
     <use style="stroke:#000000;stroke-width:0.5;" x="118.08" xlink:href="#mb76118d47c" y="115.52843"/>
     <use style="stroke:#000000;stroke-width:0.5;" x="118.08" xlink:href="#mb76118d47c" y="126.5328"/>
     <use style="stroke:#000000;stroke-width:0.5;" x="199.238998" xlink:href="#mb76118d47c" y="126.5328"/>
     <use style="stroke:#000000;stroke-width:0.5;" x="190.500327" xlink:href="#mb76118d47c" y="126.5328"/>
     <use style="stroke:#000000;stroke-width:0.5;" x="181.210493" xlink:href="#mb76118d47c" y="126.5328"/>
     <use style="stroke:#000000;stroke-width:0.5;" x="171.440199" xlink:href="#mb76118d47c" y="126.5328"/>
     <use style="stroke:#000000;stroke-width:0.5;" x="161.263801" xlink:href="#mb76118d47c" y="126.5328"/>
     <use style="stroke:#000000;stroke-width:0.5;" x="150.758748" xlink:href="#mb76118d47c" y="126.5328"/>
     <use style="stroke:#000000;stroke-width:0.5;" x="140.00499" xlink:href="#mb76118d47c" y="126.5328"/>
     <use style="stroke:#000000;stroke-width:0.5;" x="129.08437" xlink:href="#mb76118d47c" y="126.5328"/>
     <use style="stroke:#000000;stroke-width:0.5;" x="118.08" xlink:href="#mb76118d47c" y="207.691798"/>
     <use style="stroke:#000000;stroke-width:0.5;" x="118.08" xlink:href="#mb76118d47c" y="198.953127"/>
     <use style="stroke:#000000;stroke-width:0.5;" x="118.08" xlink:href="#mb76118d47c" y="189.663293"/>
     <use style="stroke:#000000;stroke-width:0.5;" x="118.08" xlink:href="#mb76118d47c" y="179.892999"/>
     <use style="stroke:#000000;stroke-width:0.5;" x="118.08" xlink:href="#mb76118d47c" y="169.716601"/>
     <use style="stroke:#000000;stroke-width:0.5;" x="118.08" xlink:href="#mb76118d47c" y="159.211548"/>
     <use style="stroke:#000000;stroke-width:0.5;" x="118.08" xlink:href="#mb76118d47c" y="148.45779"/>
     <use style="stroke:#000000;stroke-width:0.5;" x="118.08" xlink:href="#mb76118d47c" y="137.53717"/>
     <use style="stroke:#000000;stroke-width:0.5;" x="36.921002" xlink:href="#mb76118d47c" y="126.5328"/>
     <use style="stroke:#000000;stroke-width:0.5;" x="45.659673" xlink:href="#mb76118d47c" y="126.5328"/>
     <use style="stroke:#000000;stroke-width:0.5;" x="54.949507" xlink:href="#mb76118d47c" y="126.5328"/>
     <use style="stroke:#000000;stroke-width:0.5;" x="64.719801" xlink:href="#mb76118d47c" y="126.5328"/>
     <use style="stroke:#000000;stroke-width:0.5;" x="74.896199" xlink:href="#mb76118d47c" y="126.5328"/>
     <use style="stroke:#000000;stroke-width:0.5;" x="85.401252" xlink:href="#mb76118d47c" y="126.5328"/>
     <use style="stroke:#000000;stroke-width:0.5;" x="96.15501" xlink:href="#mb76118d47c" y="126.5328"/>
     <use style="stroke:#000000;stroke-width:0.5;" x="107.07563" xlink:href="#mb76118d47c" y="126.5328"/>
    </g>
   </g>
   <g id="line2d_3">
    <path d="M 118.08 37.2528 
L 118.08 38.035305 
L 118.08 38.824549 
L 118.08 39.620472 
" style="fill:none;stroke:#000000;stroke-linecap:square;stroke-width:0.5;"/>
   </g>
   <g id="line2d_4">
    <path d="M 133.583309 38.609164 
L 133.447429 39.37978 
L 133.310378 40.157034 
L 133.172167 40.940866 
" style="fill:none;stroke:#000000;stroke-linecap:square;stroke-width:0.5;"/>
   </g>
   <g id="line2d_5">
    <path d="M 148.615558 42.637043 
L 148.347926 43.372357 
L 148.077989 44.114003 
L 147.805767 44.861927 
" style="fill:none;stroke:#000000;stroke-linecap:square;stroke-width:0.5;"/>
   </g>
   <g id="line2d_6">
    <path d="M 162.72 49.214052 
L 162.328748 49.891721 
L 161.934126 50.575226 
L 161.536164 51.264516 
" style="fill:none;stroke:#000000;stroke-linecap:square;stroke-width:0.5;"/>
   </g>
   <g id="line2d_7">
    <path d="M 175.468078 58.140352 
L 174.965094 58.739785 
L 174.457777 59.344381 
L 173.946168 59.954094 
" style="fill:none;stroke:#000000;stroke-linecap:square;stroke-width:0.5;"/>
   </g>
   <g id="line2d_8">
    <path d="M 186.472448 69.144722 
L 185.873015 69.647706 
L 185.268419 70.155023 
L 184.658706 70.666632 
" style="fill:none;stroke:#000000;stroke-linecap:square;stroke-width:0.5;"/>
   </g>
   <g id="line2d_9">
    <path d="M 195.398748 81.8928 
L 194.721079 82.284052 
L 194.037574 82.678674 
L 193.348284 83.076636 
" style="fill:none;stroke:#000000;stroke-linecap:square;stroke-width:0.5;"/>
   </g>
   <g id="line2d_10">
    <path d="M 201.975757 95.997242 
L 201.240443 96.264874 
L 200.498797 96.534811 
L 199.750873 96.807033 
" style="fill:none;stroke:#000000;stroke-linecap:square;stroke-width:0.5;"/>
   </g>
   <g id="line2d_11">
    <path d="M 206.003636 111.029491 
L 205.23302 111.165371 
L 204.455766 111.302422 
L 203.671934 111.440633 
" style="fill:none;stroke:#000000;stroke-linecap:square;stroke-width:0.5;"/>
   </g>
   <g id="line2d_12">
    <path d="M 207.36 126.5328 
L 206.577495 126.5328 
L 205.788251 126.5328 
L 204.992328 126.5328 
" style="fill:none;stroke:#000000;stroke-linecap:square;stroke-width:0.5;"/>
   </g>
   <g id="line2d_13">
    <path d="M 206.003636 142.036109 
L 205.23302 141.900229 
L 204.455766 141.763178 
L 203.671934 141.624967 
" style="fill:none;stroke:#000000;stroke-linecap:square;stroke-width:0.5;"/>
   </g>
   <g id="line2d_14">
    <path d="M 201.975757 157.068358 
L 201.240443 156.800726 
L 200.498797 156.530789 
L 199.750873 156.258567 
" style="fill:none;stroke:#000000;stroke-linecap:square;stroke-width:0.5;"/>
   </g>
   <g id="line2d_15">
    <path d="M 195.398748 171.1728 
L 194.721079 170.781548 
L 194.037574 170.386926 
L 193.348284 169.988964 
" style="fill:none;stroke:#000000;stroke-linecap:square;stroke-width:0.5;"/>
   </g>
   <g id="line2d_16">
    <path d="M 186.472448 183.920878 
L 185.873015 183.417894 
L 185.268419 182.910577 
L 184.658706 182.398968 
" style="fill:none;stroke:#000000;stroke-linecap:square;stroke-width:0.5;"/>
   </g>
   <g id="line2d_17">
    <path d="M 175.468078 194.925248 
L 174.965094 194.325815 
L 174.457777 193.721219 
L 173.946168 193.111506 
" style="fill:none;stroke:#000000;stroke-linecap:square;stroke-width:0.5;"/>
   </g>
   <g id="line2d_18">
    <path d="M 162.72 203.851548 
L 162.328748 203.173879 
L 161.934126 202.490374 
L 161.536164 201.801084 
" style="fill:none;stroke:#000000;stroke-linecap:square;stroke-width:0.5;"/>
   </g>
   <g id="line2d_19">
    <path d="M 148.615558 210.428557 
L 148.347926 209.693243 
L 148.077989 208.951597 
L 147.805767 208.203673 
" style="fill:none;stroke:#000000;stroke-linecap:square;stroke-width:0.5;"/>
   </g>
   <g id="line2d_20">
    <path d="M 133.583309 214.456436 
L 133.447429 213.68582 
L 133.310378 212.908566 
L 133.172167 212.124734 
" style="fill:none;stroke:#000000;stroke-linecap:square;stroke-width:0.5;"/>
   </g>
   <g id="line2d_21">
    <path d="M 118.08 215.8128 
L 118.08 215.030295 
L 118.08 214.241051 
L 118.08 213.445128 
" style="fill:none;stroke:#000000;stroke-linecap:square;stroke-width:0.5;"/>
   </g>
   <g id="line2d_22">
    <path d="M 102.576691 214.456436 
L 102.712571 213.68582 
L 102.849622 212.908566 
L 102.987833 212.124734 
" style="fill:none;stroke:#000000;stroke-linecap:square;stroke-width:0.5;"/>
   </g>
   <g id="line2d_23">
    <path d="M 87.544442 210.428557 
L 87.812074 209.693243 
L 88.082011 208.951597 
L 88.354233 208.203673 
" style="fill:none;stroke:#000000;stroke-linecap:square;stroke-width:0.5;"/>
   </g>
   <g id="line2d_24">
    <path d="M 73.44 203.851548 
L 73.831252 203.173879 
L 74.225874 202.490374 
L 74.623836 201.801084 
" style="fill:none;stroke:#000000;stroke-linecap:square;stroke-width:0.5;"/>
   </g>
   <g id="line2d_25">
    <path d="M 60.691922 194.925248 
L 61.194906 194.325815 
L 61.702223 193.721219 
L 62.213832 193.111506 
" style="fill:none;stroke:#000000;stroke-linecap:square;stroke-width:0.5;"/>
   </g>
   <g id="line2d_26">
    <path d="M 49.687552 183.920878 
L 50.286985 183.417894 
L 50.891581 182.910577 
L 51.501294 182.398968 
" style="fill:none;stroke:#000000;stroke-linecap:square;stroke-width:0.5;"/>
   </g>
   <g id="line2d_27">
    <path d="M 40.761252 171.1728 
L 41.438921 170.781548 
L 42.122426 170.386926 
L 42.811716 169.988964 
" style="fill:none;stroke:#000000;stroke-linecap:square;stroke-width:0.5;"/>
   </g>
   <g id="line2d_28">
    <path d="M 34.184243 157.068358 
L 34.919557 156.800726 
L 35.661203 156.530789 
L 36.409127 156.258567 
" style="fill:none;stroke:#000000;stroke-linecap:square;stroke-width:0.5;"/>
   </g>
   <g id="line2d_29">
    <path d="M 30.156364 142.036109 
L 30.92698 141.900229 
L 31.704234 141.763178 
L 32.488066 141.624967 
" style="fill:none;stroke:#000000;stroke-linecap:square;stroke-width:0.5;"/>
   </g>
   <g id="line2d_30">
    <path d="M 28.8 126.5328 
L 29.582505 126.5328 
L 30.371749 126.5328 
L 31.167672 126.5328 
" style="fill:none;stroke:#000000;stroke-linecap:square;stroke-width:0.5;"/>
   </g>
   <g id="line2d_31">
    <path d="M 30.156364 111.029491 
L 30.92698 111.165371 
L 31.704234 111.302422 
L 32.488066 111.440633 
" style="fill:none;stroke:#000000;stroke-linecap:square;stroke-width:0.5;"/>
   </g>
   <g id="line2d_32">
    <path d="M 34.184243 95.997242 
L 34.919557 96.264874 
L 35.661203 96.534811 
L 36.409127 96.807033 
" style="fill:none;stroke:#000000;stroke-linecap:square;stroke-width:0.5;"/>
   </g>
   <g id="line2d_33">
    <path d="M 40.761252 81.8928 
L 41.438921 82.284052 
L 42.122426 82.678674 
L 42.811716 83.076636 
" style="fill:none;stroke:#000000;stroke-linecap:square;stroke-width:0.5;"/>
   </g>
   <g id="line2d_34">
    <path d="M 49.687552 69.144722 
L 50.286985 69.647706 
L 50.891581 70.155023 
L 51.501294 70.666632 
" style="fill:none;stroke:#000000;stroke-linecap:square;stroke-width:0.5;"/>
   </g>
   <g id="line2d_35">
    <path d="M 60.691922 58.140352 
L 61.194906 58.739785 
L 61.702223 59.344381 
L 62.213832 59.954094 
" style="fill:none;stroke:#000000;stroke-linecap:square;stroke-width:0.5;"/>
   </g>
   <g id="line2d_36">
    <path d="M 73.44 49.214052 
L 73.831252 49.891721 
L 74.225874 50.575226 
L 74.623836 51.264516 
" style="fill:none;stroke:#000000;stroke-linecap:square;stroke-width:0.5;"/>
   </g>
   <g id="line2d_37">
    <path d="M 87.544442 42.637043 
L 87.812074 43.372357 
L 88.082011 44.114003 
L 88.354233 44.861927 
" style="fill:none;stroke:#000000;stroke-linecap:square;stroke-width:0.5;"/>
   </g>
   <g id="line2d_38">
    <path d="M 102.576691 38.609164 
L 102.712571 39.37978 
L 102.849622 40.157034 
L 102.987833 40.940866 
" style="fill:none;stroke:#000000;stroke-linecap:square;stroke-width:0.5;"/>
   </g>
   <g id="line2d_39">
    <path clip-path="url(#p22e9967ca0)" d="M 76.57589 118.547149 
L 76.622121 118.828487 
L 76.580524 118.968806 
L 76.580524 118.968806 
L 76.625205 119.039377 
L 76.67 119.109873 
L 76.67 119.109873 
L 76.674295 119.320914 
L 76.719526 119.391296 
L 76.850323 119.391114 
L 77.07199 119.530491 
L 77.117602 119.600281 
L 77.464362 119.526624 
L 77.510028 119.595863 
L 77.896142 119.38078 
L 77.555806 119.665027 
L 77.732504 119.731782 
L 77.987275 119.518013 
L 78.078851 119.654947 
L 77.909326 119.797849 
L 77.955471 119.86642 
L 78.217045 119.859785 
L 78.048094 120.003336 
L 78.178921 119.999775 
L 77.963706 120.075178 
L 78.187856 120.208142 
L 78.217045 119.859785 
L 78.309726 119.995967 
L 78.309726 119.995967 
L 78.394098 119.924042 
L 78.524842 119.919923 
L 78.487026 120.059706 
L 78.609235 119.847979 
L 78.816835 119.565083 
L 78.824329 119.771585 
L 78.916922 119.906084 
L 79.271248 120.029085 
L 79.392922 119.817688 
L 79.691852 119.667114 
L 80.335662 119.430238 
L 80.780455 119.674424 
L 80.21792 120.593973 
L 82.525731 119.805362 
L 83.067293 120.149752 
L 81.385209 121.049335 
L 84.418222 119.537001 
L 82.182285 121.176618 
L 86.316173 120.111202 
" style="fill:none;stroke:#808080;stroke-linecap:square;stroke-width:0.5;"/>
   </g>
   <g id="text_1">
    <!-- specimen: DX1-5b -->
    <defs>
     <path d="M 3.078125 15.484375 
L 11.765625 16.84375 
Q 12.5 11.625 15.84375 8.84375 
Q 19.1875 6.0625 25.203125 6.0625 
Q 31.25 6.0625 34.171875 8.515625 
Q 37.109375 10.984375 37.109375 14.3125 
Q 37.109375 17.28125 34.515625 19 
Q 32.71875 20.171875 25.53125 21.96875 
Q 15.875 24.421875 12.140625 26.203125 
Q 8.40625 27.984375 6.46875 31.125 
Q 4.546875 34.28125 4.546875 38.09375 
Q 4.546875 41.546875 6.125 44.5 
Q 7.71875 47.46875 10.453125 49.421875 
Q 12.5 50.921875 16.03125 51.96875 
Q 19.578125 53.03125 23.640625 53.03125 
Q 29.734375 53.03125 34.34375 51.265625 
Q 38.96875 49.515625 41.15625 46.5 
Q 43.359375 43.5 44.1875 38.484375 
L 35.59375 37.3125 
Q 35.015625 41.3125 32.203125 43.546875 
Q 29.390625 45.796875 24.265625 45.796875 
Q 18.21875 45.796875 15.625 43.796875 
Q 13.03125 41.796875 13.03125 39.109375 
Q 13.03125 37.40625 14.109375 36.03125 
Q 15.1875 34.625 17.484375 33.6875 
Q 18.796875 33.203125 25.25 31.453125 
Q 34.578125 28.953125 38.25 27.359375 
Q 41.9375 25.78125 44.03125 22.75 
Q 46.140625 19.734375 46.140625 15.234375 
Q 46.140625 10.84375 43.578125 6.953125 
Q 41.015625 3.078125 36.171875 0.953125 
Q 31.34375 -1.171875 25.25 -1.171875 
Q 15.140625 -1.171875 9.84375 3.03125 
Q 4.546875 7.234375 3.078125 15.484375 
z
" id="ArialMT-73"/>
     <path d="M 6.59375 -19.875 
L 6.59375 51.859375 
L 14.59375 51.859375 
L 14.59375 45.125 
Q 17.4375 49.078125 21 51.046875 
Q 24.5625 53.03125 29.640625 53.03125 
Q 36.28125 53.03125 41.359375 49.609375 
Q 46.4375 46.1875 49.015625 39.953125 
Q 51.609375 33.734375 51.609375 26.3125 
Q 51.609375 18.359375 48.75 11.984375 
Q 45.90625 5.609375 40.453125 2.21875 
Q 35.015625 -1.171875 29 -1.171875 
Q 24.609375 -1.171875 21.109375 0.6875 
Q 17.625 2.546875 15.375 5.375 
L 15.375 -19.875 
z
M 14.546875 25.640625 
Q 14.546875 15.625 18.59375 10.84375 
Q 22.65625 6.0625 28.421875 6.0625 
Q 34.28125 6.0625 38.453125 11.015625 
Q 42.625 15.96875 42.625 26.375 
Q 42.625 36.28125 38.546875 41.203125 
Q 34.46875 46.140625 28.8125 46.140625 
Q 23.1875 46.140625 18.859375 40.890625 
Q 14.546875 35.640625 14.546875 25.640625 
z
" id="ArialMT-70"/>
     <path d="M 42.09375 16.703125 
L 51.171875 15.578125 
Q 49.03125 7.625 43.21875 3.21875 
Q 37.40625 -1.171875 28.375 -1.171875 
Q 17 -1.171875 10.328125 5.828125 
Q 3.65625 12.84375 3.65625 25.484375 
Q 3.65625 38.578125 10.390625 45.796875 
Q 17.140625 53.03125 27.875 53.03125 
Q 38.28125 53.03125 44.875 45.953125 
Q 51.46875 38.875 51.46875 26.03125 
Q 51.46875 25.25 51.421875 23.6875 
L 12.75 23.6875 
Q 13.234375 15.140625 17.578125 10.59375 
Q 21.921875 6.0625 28.421875 6.0625 
Q 33.25 6.0625 36.671875 8.59375 
Q 40.09375 11.140625 42.09375 16.703125 
z
M 13.234375 30.90625 
L 42.1875 30.90625 
Q 41.609375 37.453125 38.875 40.71875 
Q 34.671875 45.796875 27.984375 45.796875 
Q 21.921875 45.796875 17.796875 41.75 
Q 13.671875 37.703125 13.234375 30.90625 
z
" id="ArialMT-65"/>
     <path d="M 40.4375 19 
L 49.078125 17.875 
Q 47.65625 8.9375 41.8125 3.875 
Q 35.984375 -1.171875 27.484375 -1.171875 
Q 16.84375 -1.171875 10.375 5.78125 
Q 3.90625 12.75 3.90625 25.734375 
Q 3.90625 34.125 6.6875 40.421875 
Q 9.46875 46.734375 15.15625 49.875 
Q 20.84375 53.03125 27.546875 53.03125 
Q 35.984375 53.03125 41.359375 48.75 
Q 46.734375 44.484375 48.25 36.625 
L 39.703125 35.296875 
Q 38.484375 40.53125 35.375 43.15625 
Q 32.28125 45.796875 27.875 45.796875 
Q 21.234375 45.796875 17.078125 41.03125 
Q 12.9375 36.28125 12.9375 25.984375 
Q 12.9375 15.53125 16.9375 10.796875 
Q 20.953125 6.0625 27.390625 6.0625 
Q 32.5625 6.0625 36.03125 9.234375 
Q 39.5 12.40625 40.4375 19 
z
" id="ArialMT-63"/>
     <path d="M 6.640625 61.46875 
L 6.640625 71.578125 
L 15.4375 71.578125 
L 15.4375 61.46875 
z
M 6.640625 0 
L 6.640625 51.859375 
L 15.4375 51.859375 
L 15.4375 0 
z
" id="ArialMT-69"/>
     <path d="M 6.59375 0 
L 6.59375 51.859375 
L 14.453125 51.859375 
L 14.453125 44.578125 
Q 16.890625 48.390625 20.9375 50.703125 
Q 25 53.03125 30.171875 53.03125 
Q 35.9375 53.03125 39.625 50.640625 
Q 43.3125 48.25 44.828125 43.953125 
Q 50.984375 53.03125 60.84375 53.03125 
Q 68.5625 53.03125 72.703125 48.75 
Q 76.859375 44.484375 76.859375 35.59375 
L 76.859375 0 
L 68.109375 0 
L 68.109375 32.671875 
Q 68.109375 37.9375 67.25 40.25 
Q 66.40625 42.578125 64.15625 43.984375 
Q 61.921875 45.40625 58.890625 45.40625 
Q 53.421875 45.40625 49.796875 41.765625 
Q 46.1875 38.140625 46.1875 30.125 
L 46.1875 0 
L 37.40625 0 
L 37.40625 33.6875 
Q 37.40625 39.546875 35.25 42.46875 
Q 33.109375 45.40625 28.21875 45.40625 
Q 24.515625 45.40625 21.359375 43.453125 
Q 18.21875 41.5 16.796875 37.734375 
Q 15.375 33.984375 15.375 26.90625 
L 15.375 0 
z
" id="ArialMT-6d"/>
     <path d="M 6.59375 0 
L 6.59375 51.859375 
L 14.5 51.859375 
L 14.5 44.484375 
Q 20.21875 53.03125 31 53.03125 
Q 35.6875 53.03125 39.625 51.34375 
Q 43.5625 49.65625 45.515625 46.921875 
Q 47.46875 44.1875 48.25 40.4375 
Q 48.734375 37.984375 48.734375 31.890625 
L 48.734375 0 
L 39.9375 0 
L 39.9375 31.546875 
Q 39.9375 36.921875 38.90625 39.578125 
Q 37.890625 42.234375 35.28125 43.8125 
Q 32.671875 45.40625 29.15625 45.40625 
Q 23.53125 45.40625 19.453125 41.84375 
Q 15.375 38.28125 15.375 28.328125 
L 15.375 0 
z
" id="ArialMT-6e"/>
     <path d="M 9.03125 41.84375 
L 9.03125 51.859375 
L 19.046875 51.859375 
L 19.046875 41.84375 
z
M 9.03125 0 
L 9.03125 10.015625 
L 19.046875 10.015625 
L 19.046875 0 
z
" id="ArialMT-3a"/>
     <path id="ArialMT-20"/>
     <path d="M 7.71875 0 
L 7.71875 71.578125 
L 32.375 71.578125 
Q 40.71875 71.578125 45.125 70.5625 
Q 51.265625 69.140625 55.609375 65.4375 
Q 61.28125 60.640625 64.078125 53.1875 
Q 66.890625 45.75 66.890625 36.1875 
Q 66.890625 28.03125 64.984375 21.734375 
Q 63.09375 15.4375 60.109375 11.296875 
Q 57.125 7.171875 53.578125 4.796875 
Q 50.046875 2.4375 45.046875 1.21875 
Q 40.046875 0 33.546875 0 
z
M 17.1875 8.453125 
L 32.46875 8.453125 
Q 39.546875 8.453125 43.578125 9.765625 
Q 47.609375 11.078125 50 13.484375 
Q 53.375 16.84375 55.25 22.53125 
Q 57.125 28.21875 57.125 36.328125 
Q 57.125 47.5625 53.4375 53.59375 
Q 49.75 59.625 44.484375 61.671875 
Q 40.671875 63.140625 32.234375 63.140625 
L 17.1875 63.140625 
z
" id="ArialMT-44"/>
     <path d="M 0.4375 0 
L 28.125 37.3125 
L 3.71875 71.578125 
L 14.984375 71.578125 
L 27.984375 53.21875 
Q 32.03125 47.515625 33.734375 44.4375 
Q 36.140625 48.34375 39.40625 52.59375 
L 53.8125 71.578125 
L 64.109375 71.578125 
L 38.96875 37.84375 
L 66.0625 0 
L 54.34375 0 
L 36.328125 25.53125 
Q 34.8125 27.734375 33.203125 30.328125 
Q 30.8125 26.421875 29.78125 24.953125 
L 11.8125 0 
z
" id="ArialMT-58"/>
     <path d="M 37.25 0 
L 28.46875 0 
L 28.46875 56 
Q 25.296875 52.984375 20.140625 49.953125 
Q 14.984375 46.921875 10.890625 45.40625 
L 10.890625 53.90625 
Q 18.265625 57.375 23.78125 62.296875 
Q 29.296875 67.234375 31.59375 71.875 
L 37.25 71.875 
z
" id="ArialMT-31"/>
     <path d="M 3.171875 21.484375 
L 3.171875 30.328125 
L 30.171875 30.328125 
L 30.171875 21.484375 
z
" id="ArialMT-2d"/>
     <path d="M 4.15625 18.75 
L 13.375 19.53125 
Q 14.40625 12.796875 18.140625 9.390625 
Q 21.875 6 27.15625 6 
Q 33.5 6 37.890625 10.78125 
Q 42.28125 15.578125 42.28125 23.484375 
Q 42.28125 31 38.0625 35.34375 
Q 33.84375 39.703125 27 39.703125 
Q 22.75 39.703125 19.328125 37.765625 
Q 15.921875 35.84375 13.96875 32.765625 
L 5.71875 33.84375 
L 12.640625 70.609375 
L 48.25 70.609375 
L 48.25 62.203125 
L 19.671875 62.203125 
L 15.828125 42.96875 
Q 22.265625 47.46875 29.34375 47.46875 
Q 38.71875 47.46875 45.15625 40.96875 
Q 51.609375 34.46875 51.609375 24.265625 
Q 51.609375 14.546875 45.953125 7.46875 
Q 39.0625 -1.21875 27.15625 -1.21875 
Q 17.390625 -1.21875 11.203125 4.25 
Q 5.03125 9.71875 4.15625 18.75 
z
" id="ArialMT-35"/>
     <path d="M 14.703125 0 
L 6.546875 0 
L 6.546875 71.578125 
L 15.328125 71.578125 
L 15.328125 46.046875 
Q 20.90625 53.03125 29.546875 53.03125 
Q 34.328125 53.03125 38.59375 51.09375 
Q 42.875 49.171875 45.625 45.671875 
Q 48.390625 42.1875 49.953125 37.25 
Q 51.515625 32.328125 51.515625 26.703125 
Q 51.515625 13.375 44.921875 6.09375 
Q 38.328125 -1.171875 29.109375 -1.171875 
Q 19.921875 -1.171875 14.703125 6.5 
z
M 14.59375 26.3125 
Q 14.59375 17 17.140625 12.84375 
Q 21.296875 6.0625 28.375 6.0625 
Q 34.125 6.0625 38.328125 11.0625 
Q 42.53125 16.0625 42.53125 25.984375 
Q 42.53125 36.140625 38.5 40.96875 
Q 34.46875 45.796875 28.765625 45.796875 
Q 23 45.796875 18.796875 40.796875 
Q 14.59375 35.796875 14.59375 26.3125 
z
" id="ArialMT-62"/>
    </defs>
    <g transform="translate(10.944 26.4608)scale(0.1 -0.1)">
     <use xlink:href="#ArialMT-73"/>
     <use x="50" xlink:href="#ArialMT-70"/>
     <use x="105.615234" xlink:href="#ArialMT-65"/>
     <use x="161.230469" xlink:href="#ArialMT-63"/>
     <use x="211.230469" xlink:href="#ArialMT-69"/>
     <use x="233.447266" xlink:href="#ArialMT-6d"/>
     <use x="316.748047" xlink:href="#ArialMT-65"/>
     <use x="372.363281" xlink:href="#ArialMT-6e"/>
     <use x="427.978516" xlink:href="#ArialMT-3a"/>
     <use x="455.761719" xlink:href="#ArialMT-20"/>
     <use x="483.544922" xlink:href="#ArialMT-44"/>
     <use x="555.761719" xlink:href="#ArialMT-58"/>
     <use x="622.460938" xlink:href="#ArialMT-31"/>
     <use x="678.076172" xlink:href="#ArialMT-2d"/>
     <use x="711.376953" xlink:href="#ArialMT-35"/>
     <use x="766.992188" xlink:href="#ArialMT-62"/>
    </g>
   </g>
  </g>
 </g>
 <defs>
  <clipPath id="p22e9967ca0">
   <rect height="178.56" width="178.56" x="28.8" y="37.2528"/>
  </clipPath>
 </defs>
</svg>
